<svg width="54" height="28" viewBox="0 0 54 28" fill="none" xmlns="http://www.w3.org/2000/svg" class="cisco-logo-svg">
	<g clip-path="url(#clip0_13_21447)">
		<path d="M17.3545 18.6045H15.0251V27.8355H17.3545V18.6045Z" fill="#C4122E" />
		<path d="M36.1367 21.2498C35.5365 20.9229 34.8633 20.7533 34.1799 20.7569C33.8491 20.7451 33.5192 20.8 33.21 20.9185C32.9009 21.037 32.6187 21.2165 32.3805 21.4464C32.1422 21.6763 31.9527 21.9519 31.8233 22.2566C31.6938 22.5614 31.6271 22.8891 31.6271 23.2201C31.6271 23.5512 31.6938 23.8789 31.8233 24.1837C31.9527 24.4884 32.1422 24.764 32.3805 24.9939C32.6187 25.2238 32.9009 25.4033 33.21 25.5218C33.5192 25.6402 33.8491 25.6952 34.1799 25.6834C34.8629 25.686 35.5356 25.5176 36.1367 25.1935V27.6711C35.4484 27.8833 34.7327 27.9939 34.0125 27.9994C33.3736 28.0174 32.7375 27.907 32.142 27.6749C31.5465 27.4428 31.0035 27.0936 30.5453 26.648C30.087 26.2025 29.7228 25.6695 29.4741 25.0808C29.2253 24.492 29.0972 23.8593 29.0972 23.2201C29.0972 22.581 29.2253 21.9483 29.4741 21.3595C29.7228 20.7708 30.087 20.2378 30.5453 19.7922C31.0035 19.3467 31.5465 18.9975 32.142 18.7654C32.7375 18.5333 33.3736 18.4229 34.0125 18.4408C34.7333 18.4425 35.4496 18.5543 36.1367 18.7721V21.2498Z" fill="#C4122E" />
		<path d="M11.8227 21.2498C11.2226 20.9229 10.5494 20.7533 9.86599 20.7569C9.53511 20.7451 9.20523 20.8 8.89606 20.9185C8.58689 21.037 8.30475 21.2165 8.06649 21.4464C7.82823 21.6763 7.63873 21.9519 7.5093 22.2566C7.37987 22.5614 7.31316 22.8891 7.31316 23.2201C7.31316 23.5512 7.37987 23.8789 7.5093 24.1837C7.63873 24.4884 7.82823 24.764 8.06649 24.9939C8.30475 25.2238 8.58689 25.4033 8.89606 25.5218C9.20523 25.6402 9.53511 25.6952 9.86599 25.6834C10.5489 25.686 11.2216 25.5176 11.8227 25.1935V27.6711C11.1344 27.8833 10.4188 27.9939 9.6985 27.9994C9.05959 28.0174 8.42357 27.907 7.82805 27.6749C7.23252 27.4428 6.68958 27.0936 6.23133 26.648C5.77308 26.2025 5.40882 25.6695 5.16009 25.0808C4.91136 24.492 4.7832 23.8593 4.7832 23.2201C4.7832 22.581 4.91136 21.9483 5.16009 21.3595C5.40882 20.7708 5.77308 20.2378 6.23133 19.7922C6.68958 19.3467 7.23252 18.9975 7.82805 18.7654C8.42357 18.5333 9.05959 18.4229 9.6985 18.4408C10.4193 18.4425 11.1356 18.5543 11.8227 18.7721V21.2498Z" fill="#C4122E" />
		<path d="M43.4645 20.7917C42.9833 20.788 42.5119 20.9273 42.11 21.1919C41.7081 21.4565 41.3939 21.8346 41.2072 22.2781C41.0205 22.7216 40.9698 23.2105 41.0614 23.6829C41.1531 24.1553 41.383 24.5898 41.722 24.9313C42.061 25.2728 42.4938 25.5059 42.9655 25.601C43.4372 25.6961 43.9265 25.649 44.3714 25.4655C44.8163 25.2821 45.1966 24.9707 45.4642 24.5707C45.7317 24.1708 45.8745 23.7004 45.8742 23.2192C45.8798 22.9004 45.8214 22.5836 45.7025 22.2878C45.5836 21.9919 45.4066 21.7229 45.182 21.4966C44.9573 21.2703 44.6896 21.0913 44.3946 20.9702C44.0996 20.8492 43.7833 20.7885 43.4645 20.7917ZM48.3423 23.2192C48.362 24.1878 48.0928 25.1403 47.569 25.9553C47.0452 26.7703 46.2905 27.4108 45.4012 27.7953C44.512 28.1797 43.5284 28.2906 42.5758 28.1137C41.6233 27.9369 40.745 27.4805 40.0529 26.8025C39.3608 26.1246 38.8863 25.2559 38.6899 24.3072C38.4935 23.3585 38.5841 22.3728 38.95 21.4758C39.316 20.5788 39.9409 19.8111 40.7449 19.2706C41.5489 18.7301 42.4957 18.4413 43.4645 18.441C44.1017 18.4224 44.7361 18.5325 45.3298 18.7647C45.9234 18.997 46.4642 19.3466 46.9195 19.7927C47.3749 20.2388 47.7357 20.7722 47.9801 21.361C48.2246 21.9497 48.3478 22.5817 48.3423 23.2192Z" fill="#C4122E" />
		<path d="M26.1881 20.7029C25.594 20.5388 24.983 20.4443 24.3671 20.421C23.4338 20.421 22.9261 20.7339 22.9261 21.1773C22.9261 21.7395 23.6109 21.9358 23.9938 22.0568L24.6364 22.2612C25.2465 22.3904 25.7952 22.7212 26.1945 23.2002C26.5937 23.6792 26.8202 24.2786 26.8374 24.9019C26.8374 27.2209 24.798 28 23.0154 28C22.1716 27.9924 21.3302 27.9079 20.5016 27.7477V25.6235C21.2172 25.8311 21.9563 25.9464 22.7011 25.9666C23.8602 25.9666 24.393 25.6279 24.393 25.1048C24.393 24.637 23.9318 24.3669 23.3541 24.1854C23.2132 24.1382 23.0014 24.0718 22.8568 24.0246C21.5597 23.6144 20.478 22.8522 20.478 21.3241C20.478 19.5976 21.7707 18.4385 23.9178 18.4385C24.6833 18.4489 25.4451 18.5474 26.1881 18.7321V20.7029Z" fill="#C4122E" />
		<path d="M2.3131 8.68416C2.31201 8.37814 2.18967 8.08503 1.9729 7.86903C1.75612 7.65302 1.46257 7.53174 1.15655 7.53174C0.850527 7.53174 0.556979 7.65302 0.340202 7.86903C0.123426 8.08503 0.00109311 8.37814 0 8.68416L0 11.1072C0 11.4139 0.12185 11.7081 0.338745 11.925C0.55564 12.1419 0.849813 12.2637 1.15655 12.2637C1.46328 12.2637 1.75746 12.1419 1.97435 11.925C2.19125 11.7081 2.3131 11.4139 2.3131 11.1072V8.68416Z" fill="#15495D" />
		<path d="M8.66539 5.50399C8.6643 5.19797 8.54197 4.90485 8.32519 4.68885C8.10841 4.47285 7.81487 4.35156 7.50884 4.35156C7.20282 4.35156 6.90927 4.47285 6.6925 4.68885C6.47572 4.90485 6.35339 5.19797 6.35229 5.50399V11.1078C6.35229 11.4145 6.47415 11.7087 6.69104 11.9256C6.90794 12.1425 7.20211 12.2644 7.50884 12.2644C7.81558 12.2644 8.10975 12.1425 8.32665 11.9256C8.54354 11.7087 8.66539 11.4145 8.66539 11.1078V5.50399Z" fill="#15495D" />
		<path d="M15.0177 1.15243C15.0166 0.846405 14.8943 0.553292 14.6775 0.337288C14.4607 0.121285 14.1672 0 13.8611 0C13.5551 0 13.2616 0.121285 13.0448 0.337288C12.828 0.553292 12.7057 0.846405 12.7046 1.15243V13.41C12.7046 13.7167 12.8264 14.0109 13.0433 14.2278C13.2602 14.4447 13.5544 14.5666 13.8611 14.5666C14.1679 14.5666 14.462 14.4447 14.6789 14.2278C14.8958 14.0109 15.0177 13.7167 15.0177 13.41V1.15243Z" fill="#15495D" />
		<path d="M21.3697 5.50399C21.3686 5.19797 21.2463 4.90485 21.0295 4.68885C20.8128 4.47285 20.5192 4.35156 20.2132 4.35156C19.9072 4.35156 19.6136 4.47285 19.3968 4.68885C19.1801 4.90485 19.0577 5.19797 19.0566 5.50399V11.1078C19.0566 11.4145 19.1785 11.7087 19.3954 11.9256C19.6123 12.1425 19.9065 12.2644 20.2132 12.2644C20.5199 12.2644 20.8141 12.1425 21.031 11.9256C21.2479 11.7087 21.3697 11.4145 21.3697 11.1078V5.50399Z" fill="#15495D" />
		<path d="M27.7149 8.68411C27.7149 8.37835 27.5934 8.08512 27.3772 7.86892C27.161 7.65271 26.8678 7.53125 26.562 7.53125C26.2563 7.53125 25.9631 7.65271 25.7469 7.86892C25.5306 8.08512 25.4092 8.37835 25.4092 8.68411V11.1071C25.4086 11.2589 25.4381 11.4092 25.4958 11.5496C25.5535 11.6899 25.6383 11.8175 25.7454 11.925C25.8525 12.0325 25.9798 12.1178 26.1199 12.176C26.2601 12.2342 26.4103 12.2641 26.562 12.2641C26.7138 12.2641 26.864 12.2342 27.0042 12.176C27.1443 12.1178 27.2716 12.0325 27.3787 11.925C27.4858 11.8175 27.5706 11.6899 27.6283 11.5496C27.686 11.4092 27.7154 11.2589 27.7149 11.1071V8.68411Z" fill="#15495D" />
		<path d="M27.7179 8.68416C27.7168 8.37814 27.5945 8.08503 27.3777 7.86903C27.1609 7.65302 26.8674 7.53174 26.5613 7.53174C26.2553 7.53174 25.9618 7.65302 25.745 7.86903C25.5282 8.08503 25.4059 8.37814 25.4048 8.68416V11.1072C25.4048 11.4139 25.5266 11.7081 25.7435 11.925C25.9604 12.1419 26.2546 12.2637 26.5613 12.2637C26.8681 12.2637 27.1622 12.1419 27.3791 11.925C27.596 11.7081 27.7179 11.4139 27.7179 11.1072V8.68416Z" fill="#15495D" />
		<path d="M34.0702 5.50399C34.0691 5.19797 33.9468 4.90485 33.73 4.68885C33.5132 4.47285 33.2197 4.35156 32.9136 4.35156C32.6076 4.35156 32.3141 4.47285 32.0973 4.68885C31.8805 4.90485 31.7582 5.19797 31.7571 5.50399V11.1078C31.7571 11.4145 31.8789 11.7087 32.0958 11.9256C32.3127 12.1425 32.6069 12.2644 32.9136 12.2644C33.2204 12.2644 33.5145 12.1425 33.7314 11.9256C33.9483 11.7087 34.0702 11.4145 34.0702 11.1078V5.50399Z" fill="#15495D" />
		<path d="M40.4225 1.15243C40.4214 0.846405 40.299 0.553292 40.0823 0.337288C39.8655 0.121285 39.5719 0 39.2659 0C38.9599 0 38.6664 0.121285 38.4496 0.337288C38.2328 0.553292 38.1105 0.846405 38.1094 1.15243V13.41C38.1094 13.7167 38.2312 14.0109 38.4481 14.2278C38.665 14.4447 38.9592 14.5666 39.2659 14.5666C39.5727 14.5666 39.8668 14.4447 40.0837 14.2278C40.3006 14.0109 40.4225 13.7167 40.4225 13.41V1.15243Z" fill="#15495D" />
		<path d="M46.7745 5.50399C46.7734 5.19797 46.6511 4.90485 46.4343 4.68885C46.2175 4.47285 45.924 4.35156 45.618 4.35156C45.312 4.35156 45.0184 4.47285 44.8016 4.68885C44.5849 4.90485 44.4625 5.19797 44.4614 5.50399V11.1078C44.4614 11.4145 44.5833 11.7087 44.8002 11.9256C45.0171 12.1425 45.3112 12.2644 45.618 12.2644C45.9247 12.2644 46.2189 12.1425 46.4358 11.9256C46.6527 11.7087 46.7745 11.4145 46.7745 11.1078V5.50399Z" fill="#15495D" />
		<path d="M53.1197 8.68411C53.1197 8.37835 52.9982 8.08512 52.782 7.86892C52.5658 7.65271 52.2726 7.53125 51.9668 7.53125C51.6611 7.53125 51.3678 7.65271 51.1516 7.86892C50.9354 8.08512 50.814 8.37835 50.814 8.68411V11.1071C50.8134 11.2589 50.8429 11.4092 50.9005 11.5496C50.9582 11.6899 51.0431 11.8175 51.1502 11.925C51.2573 12.0325 51.3846 12.1178 51.5247 12.176C51.6648 12.2342 51.8151 12.2641 51.9668 12.2641C52.1186 12.2641 52.2688 12.2342 52.409 12.176C52.5491 12.1178 52.6764 12.0325 52.7835 11.925C52.8906 11.8175 52.9754 11.6899 53.0331 11.5496C53.0908 11.4092 53.1202 11.2589 53.1197 11.1071V8.68411Z" fill="#15495D" />
		<path d="M51.791 26.6201V26.7647H51.3793V27.8353H51.2103V26.7647H50.7964V26.6201H51.791Z" fill="#C4122E" />
		<path d="M51.8774 26.6201H52.1423L52.5061 27.6169H52.512L52.8639 26.6201H53.1236V27.8353H52.9502V26.8393H52.9443L52.5754 27.8353H52.4153L52.0553 26.8393H52.0471V27.8353H51.8774V26.6201Z" fill="#C4122E" />
	</g>
	<defs>
		<clipPath id="clip0_13_21447">
			<rect width="53.1236" height="28" fill="white" />
		</clipPath>
	</defs>
</svg>
