<svg width="80" height="28" viewBox="0 0 80 28" fill="none" xmlns="http://www.w3.org/2000/svg" class="comcast-logo-svg">
	<g clip-path="url(#clip0_13_21431)">
		<path d="M39.6071 1.40662C39.8992 0.929639 40.3839 0.430555 40.9057 0.219469C41.804 -0.18924 43.0081 -0.0134794 43.741 0.633246C44.4502 1.27577 44.8099 2.1564 44.6402 3.14094C44.8141 3.10886 44.9897 2.9975 45.1739 2.93413C46.2748 2.6234 47.4391 2.96035 48.145 3.90426C48.6752 4.57808 48.8138 5.62496 48.4955 6.43897C48.3376 6.84839 48.0682 7.21654 47.718 7.53068L47.7533 7.56616C48.7775 7.61591 49.7841 8.4113 50.0947 9.3865C50.4316 10.3702 50.1353 11.4213 49.4159 12.1408C48.8282 12.7217 48.0725 12.9227 47.2324 12.9058H31.9811C30.7288 12.9328 29.7612 12.378 29.2403 11.2644C28.8316 10.3085 29.0334 9.08599 29.7966 8.35736C30.2779 7.85408 30.8808 7.64798 31.531 7.54422C30.7947 6.86114 30.44 5.9265 30.6469 4.92421C30.7947 4.11202 31.4871 3.28961 32.2824 3.00589C32.9831 2.72724 33.9323 2.77619 34.574 3.15441L34.5968 3.12653C34.4035 2.02127 34.8932 1.02413 35.81 0.412813C36.6275 -0.140132 37.9345 -0.125874 38.7348 0.461922C39.0946 0.682196 39.3909 1.06049 39.6071 1.40662Z" fill="white" />
		<path d="M43.925 1.81974C44.2527 2.48088 44.0602 3.34717 43.7182 3.94074L41.0721 9.89419L41.0492 9.92207L40.0927 3.88253C40.0159 3.30257 40.6355 3.05513 41.0003 2.77648C40.9818 2.69125 40.888 2.69545 40.829 2.65577L39.9349 2.64642L39.9077 2.61941C39.9128 1.86964 40.3164 1.17729 41.0003 0.813412C41.7147 0.400584 42.7211 0.512821 43.3408 1.04224C43.5924 1.26671 43.8044 1.52754 43.925 1.81974Z" fill="#645FAA" />
		<path d="M39.0497 1.61281C39.266 2.01305 39.3909 2.46738 39.3149 2.9705L38.2359 9.88568C38.2417 9.89407 38.2317 9.90342 38.2231 9.90754L37.9437 9.35119L35.2392 3.31165C34.9876 2.53399 35.2207 1.72093 35.7872 1.16355C36.3579 0.584387 37.2969 0.42732 38.0433 0.741455C38.4385 0.912067 38.8159 1.2262 39.0497 1.61281Z" fill="#C9234A" />
		<path d="M47.8394 4.5239C48.2033 5.14441 48.1215 6.08341 47.7169 6.65925C47.4663 7.06368 47.0524 7.2655 46.702 7.5306L41.0983 11.3773H41.0854L41.148 11.1933L44.1184 4.4885C44.5634 3.69817 45.4128 3.29794 46.3112 3.41865C46.9267 3.53104 47.5423 3.9312 47.8394 4.5239Z" fill="#0089CF" />
		<path d="M35.1091 4.48835L38.2003 11.3764H38.1505L31.9185 7.08128C31.2843 6.54687 31.0244 5.7464 31.2396 4.93754C31.4009 4.33129 31.9041 3.7648 32.5028 3.54009C33.4829 3.18128 34.5873 3.5629 35.1091 4.48835Z" fill="#F36F21" />
		<path d="M49.4654 9.38637C49.7761 10.0424 49.6537 10.9408 49.2096 11.4988C48.769 12.0334 48.1795 12.3255 47.4879 12.3069L40.843 12.3112L46.4096 8.43826C46.9535 8.08785 47.7801 8.02441 48.3737 8.30813C48.8321 8.48801 49.2636 8.93719 49.4654 9.38637Z" fill="#0DB14B" />
		<path d="M29.7882 9.38637C29.4784 10.0424 29.5999 10.9408 30.0449 11.4988C30.4856 12.0334 31.0733 12.3255 31.7657 12.3069L38.4106 12.3112L32.8439 8.43826C32.3002 8.08785 31.4737 8.02441 30.8809 8.30813C30.4223 8.48801 29.9909 8.93719 29.7882 9.38637Z" fill="#FDB913" />
		<path d="M17.856 16.2891C14.6273 16.2891 12.0032 18.9149 12.0032 22.1437C12.0032 25.3717 14.6273 27.9991 17.856 27.9991C21.0848 27.9991 23.7107 25.3717 23.7107 22.1437C23.7107 18.915 21.0848 16.2891 17.856 16.2891ZM17.856 26.8458C15.2631 26.8458 13.1531 24.7359 13.1531 22.1438C13.1531 19.5524 15.2631 17.4425 17.856 17.4425C20.449 17.4425 22.559 19.5525 22.559 22.1438C22.559 24.7359 20.449 26.8458 17.856 26.8458Z" fill="black" />
		<path d="M68.3339 22.2177C68.0198 22.053 66.1091 21.0694 65.8347 20.9267C64.8325 20.4142 64.477 19.9616 64.477 19.1949C64.477 18.1295 65.3518 17.4413 66.7085 17.4413C67.5048 17.4413 68.2747 17.7917 68.7265 18.0458C68.8085 18.0906 68.9056 18.1159 69.0068 18.1159C69.3226 18.1159 69.5819 17.8567 69.5819 17.5409C69.5819 17.3282 69.4652 17.1415 69.294 17.0419C68.7249 16.7243 67.7546 16.2896 66.7085 16.2896C64.7151 16.2896 63.3244 17.4834 63.3244 19.1949C63.3244 20.7309 64.3342 21.4553 65.3222 21.9602C65.599 22.1012 67.5318 23.0975 67.8213 23.2503C68.5847 23.6496 69.0068 24.2491 69.0068 24.939C69.0068 25.8635 68.2234 26.8463 66.7737 26.8463C65.3635 26.8463 64.2685 25.9007 63.9663 25.6094L63.8758 25.5232L63.0239 26.3L63.1235 26.3996C63.5017 26.7747 64.8848 27.9988 66.7737 27.9988C68.8913 27.9988 70.1569 26.4427 70.1569 24.939C70.1569 23.8161 69.4932 22.8238 68.3339 22.2177Z" fill="black" />
		<path d="M5.85301 17.4424C7.11018 17.4424 8.2914 17.9322 9.17796 18.8178C9.38905 19.028 9.78588 19.028 9.99356 18.8178C10.1033 18.7106 10.1616 18.5663 10.1616 18.4117C10.1616 18.2589 10.1033 18.1128 9.99356 18.0056L9.92267 17.9329C8.82668 16.8724 7.38036 16.2891 5.85301 16.2891C2.62587 16.2891 0 18.9158 0 22.1429C0 25.3717 2.62587 27.9992 5.85301 27.9992C7.55675 27.9992 9.09178 27.2682 10.1616 26.1028L9.34675 25.2872C8.48553 26.243 7.23929 26.8459 5.85293 26.8459C3.2608 26.8459 1.1508 24.7352 1.1508 22.1429C1.15088 19.5533 3.26088 17.4424 5.85301 17.4424Z" fill="black" />
		<path d="M45.5395 17.4424C46.7951 17.4424 47.9779 17.9322 48.8644 18.8178C49.0746 19.028 49.4716 19.028 49.6792 18.8178C49.789 18.7106 49.8498 18.5663 49.8498 18.4117C49.8498 18.2589 49.7889 18.1128 49.6792 18.0056L49.6091 17.9329C48.5107 16.8724 47.066 16.2891 45.5395 16.2891C42.3116 16.2891 39.6848 18.9157 39.6848 22.1428C39.6848 25.3717 42.3116 27.9991 45.5395 27.9991C47.2424 27.9991 48.7775 27.2681 49.8489 26.1027L49.0332 25.2871C48.172 26.2429 46.924 26.8458 45.5395 26.8458C42.9465 26.8458 40.8356 24.7351 40.8356 22.1429C40.8356 19.5533 42.9465 17.4424 45.5395 17.4424Z" fill="black" />
		<path d="M35.6228 16.2891C35.4066 16.2891 35.236 16.4284 35.1431 16.6082C35.0485 16.788 31.6982 25.0752 31.6974 25.0752C31.6974 25.0752 28.3471 16.7879 28.2534 16.6082C28.1596 16.4283 27.9892 16.2891 27.773 16.2891C27.5205 16.2891 27.3306 16.4748 27.2639 16.7088C27.1972 16.9443 25.3068 27.3743 25.3068 27.3743C25.3 27.4082 25.2966 27.4436 25.2966 27.4798C25.2966 27.7668 25.5305 27.9991 25.8159 27.9991C26.0692 27.9991 26.2803 27.8185 26.3258 27.5796L27.963 18.6558C27.963 18.6558 31.1217 26.4591 31.2137 26.6448C31.3066 26.8297 31.4788 26.9741 31.6984 26.9741C31.9179 26.9741 32.0893 26.8297 32.1813 26.6448C32.2742 26.459 35.4328 18.6558 35.4328 18.6558L37.1341 27.935H38.1914C38.1914 27.935 36.1996 16.9442 36.1329 16.7088C36.0651 16.4748 35.8751 16.2891 35.6228 16.2891Z" fill="black" />
		<path d="M56.4372 16.2896C56.2185 16.2888 56.049 16.4314 55.9535 16.6172C55.8589 16.8021 51.6179 27.277 51.6179 27.277C51.5925 27.3385 51.5781 27.4071 51.5781 27.4796C51.5781 27.7666 51.8104 27.9997 52.0974 27.9997C52.3161 27.9997 52.5036 27.8629 52.5805 27.6696L54.2268 23.6194H58.6485L60.4049 27.9347H61.5269C61.5269 27.9347 57.0132 16.802 56.9203 16.6171C56.8281 16.4314 56.6567 16.2888 56.4372 16.2896ZM54.6962 22.4667L56.4372 18.1859L58.1799 22.4667H54.6962Z" fill="black" />
		<path d="M78.6499 16.3511H72.1317C71.8141 16.3511 71.5566 16.6095 71.5566 16.9278C71.5566 17.2444 71.8141 17.5027 72.1317 17.5027H74.8639V27.9337H75.9194V17.5028H78.6499C78.9674 17.5028 79.2274 17.2445 79.2274 16.9279C79.2274 16.6095 78.9674 16.3511 78.6499 16.3511Z" fill="black" />
	</g>
	<defs>
		<clipPath id="clip0_13_21431">
			<rect width="79.7571" height="28" fill="white" />
		</clipPath>
	</defs>
</svg>
