<svg width="32" height="33" viewBox="0 0 32 33" fill="none" xmlns="http://www.w3.org/2000/svg">
<path fill-rule="evenodd" clip-rule="evenodd" d="M2.04688 9.71678C2.69922 8.28146 3.62144 7.02834 4.70352 5.89468C7.15131 3.33 10.1139 1.68754 13.6215 1.12716C18.5308 0.343317 22.9245 1.50017 26.7216 4.76963C26.9614 4.9759 27.0207 5.09709 26.7603 5.35235C25.4204 6.66478 24.1011 7.99869 22.774 9.32486C22.6382 9.46066 22.5463 9.62654 22.3048 9.40565C18.9623 6.34247 13.5054 6.37771 9.95321 9.68154C8.73361 10.8161 7.8664 12.1749 7.29914 13.7331C7.21664 13.679 7.12897 13.6308 7.05076 13.5707C5.38165 12.2858 3.71512 11.0017 2.04688 9.71678Z" fill="#D7282A"/>
<path fill-rule="evenodd" clip-rule="evenodd" d="M7.25858 19.9878C7.73817 21.2048 8.33293 22.3557 9.21819 23.3329C11.4683 25.8185 14.2582 26.8903 17.5998 26.543C19.1529 26.3814 20.5676 25.8554 21.8895 25.0475C22.0167 25.161 22.137 25.2822 22.2711 25.387C23.8181 26.5946 25.3678 27.8004 26.9157 29.0063C25.2079 30.6281 23.1916 31.7076 20.9234 32.2809C15.5758 33.6329 10.6466 32.7785 6.26933 29.3243C4.46012 27.8959 3.03597 26.1322 2.03296 24.0445C3.77598 22.6926 5.51728 21.3406 7.25858 19.9878Z" fill="#45AC43"/>
<path fill-rule="evenodd" clip-rule="evenodd" d="M26.9166 29.007C25.3678 27.8012 23.819 26.5953 22.2719 25.3878C22.1379 25.2829 22.0175 25.1617 21.8903 25.0483C22.9389 24.2481 23.8138 23.3018 24.388 22.0994C24.6175 21.6198 24.7782 21.1179 24.9303 20.6108C25.0352 20.261 25.0025 20.1252 24.5702 20.1286C21.9926 20.1501 19.415 20.1398 16.8375 20.1389C16.2917 20.1389 16.2908 20.1389 16.2908 19.5743C16.2908 17.8269 16.2994 16.0805 16.2831 14.3332C16.2797 13.9962 16.339 13.8665 16.7189 13.8682C21.4726 13.8819 26.2273 13.8794 30.981 13.8725C31.238 13.8725 31.3987 13.8914 31.4434 14.2034C32.0347 18.3615 31.5612 22.334 29.3841 26.004C28.7189 27.1273 27.9187 28.1527 26.9166 29.007Z" fill="#5D7FBE"/>
<path fill-rule="evenodd" clip-rule="evenodd" d="M7.25863 19.9876C5.51732 21.3395 3.77516 22.6915 2.03386 24.0443C1.18298 22.4629 0.693074 20.7645 0.463593 18.9949C0.0673741 15.9291 0.503129 12.9794 1.80352 10.1672C1.87486 10.0125 1.9651 9.86721 2.04675 9.7168C3.71414 11.0009 5.38153 12.2858 7.04977 13.569C7.12798 13.6291 7.21479 13.6773 7.29816 13.7314C6.59941 15.8131 6.63464 17.899 7.25863 19.9876Z" fill="#F4C300"/>
</svg>
