<svg width="22" height="16" viewBox="0 0 22 16" fill="none" xmlns="http://www.w3.org/2000/svg">
<path d="M21.0829 7.39531C18.8611 2.71484 15.5025 0.359375 11.0001 0.359375C6.49545 0.359375 3.1392 2.71484 0.917323 7.39766C0.828203 7.58637 0.781982 7.79247 0.781982 8.00117C0.781982 8.20987 0.828203 8.41598 0.917323 8.60469C3.1392 13.2852 6.49779 15.6406 11.0001 15.6406C15.5048 15.6406 18.8611 13.2852 21.0829 8.60234C21.2634 8.22266 21.2634 7.78203 21.0829 7.39531ZM11.0001 13.9531C7.21967 13.9531 4.4517 12.0359 2.49935 8C4.4517 3.96406 7.21967 2.04688 11.0001 2.04688C14.7806 2.04688 17.5486 3.96406 19.5009 8C17.5509 12.0359 14.7829 13.9531 11.0001 13.9531ZM10.9064 3.875C8.62826 3.875 6.78139 5.72188 6.78139 8C6.78139 10.2781 8.62826 12.125 10.9064 12.125C13.1845 12.125 15.0314 10.2781 15.0314 8C15.0314 5.72188 13.1845 3.875 10.9064 3.875ZM10.9064 10.625C9.4556 10.625 8.28139 9.45078 8.28139 8C8.28139 6.54922 9.4556 5.375 10.9064 5.375C12.3572 5.375 13.5314 6.54922 13.5314 8C13.5314 9.45078 12.3572 10.625 10.9064 10.625Z" fill="#848F99"/>
</svg>
