<svg width="182" height="201" viewBox="0 0 182 201" fill="none" xmlns="http://www.w3.org/2000/svg" class="incorta-black-logo-svg">
	<path d="M181.701 0.5H0V200.5H181.701V0.5Z" fill="black" />
	<path d="M57.0563 36.3385H64.1154L80.4301 58.3949V36.3385H87.9887V72.16H81.4772L64.6149 49.3915V72.16H57.0563V36.3385Z" fill="white" />
	<path d="M36.541 100.604V100.499C36.541 90.3187 43.9973 81.9778 54.6912 81.9778C61.2568 81.9778 65.1806 84.2318 68.4182 87.5012L63.5437 93.2847C60.8597 90.7769 58.1215 89.2412 54.6431 89.2412C48.7756 89.2412 44.5509 94.2569 44.5509 100.393V100.492C44.5509 106.635 48.6793 111.75 54.6431 111.75C58.621 111.75 61.0582 110.115 63.7964 107.551L68.671 112.617C65.0903 116.555 61.1124 119.013 54.3964 119.013C44.1477 119.025 36.541 110.889 36.541 100.604Z" fill="white" />
	<path d="M70.2538 100.604V100.499C70.2538 90.3187 78.0591 81.9778 88.8012 81.9778C99.5433 81.9778 107.252 90.2134 107.252 100.399V100.499C107.252 110.685 99.447 119.025 88.7049 119.025C77.9628 119.025 70.2538 110.79 70.2538 100.604ZM99.2484 100.604V100.499C99.2484 94.3621 94.8733 89.2412 88.7049 89.2412C82.5365 89.2412 78.2637 94.2569 78.2637 100.393V100.492C78.2637 106.635 82.6388 111.75 88.8072 111.75C94.9696 111.762 99.2484 106.746 99.2484 100.604Z" fill="white" />
	<path d="M112.079 82.595H127.99C132.413 82.595 135.85 83.8767 138.137 86.2298C140.074 88.2236 141.121 91.0411 141.121 94.4158V94.5148C141.121 100.298 138.088 103.933 133.659 105.617L142.163 118.41H133.208L125.751 106.949H119.734V118.41H112.073V82.595H112.079ZM127.491 99.9887C131.222 99.9887 133.358 97.9391 133.358 94.9235V94.8183C133.358 91.4435 131.071 89.7035 127.34 89.7035H119.734V99.9887H127.491Z" fill="white" />
	<path d="M77.006 145.167H38.3887V152.43H77.006V145.167Z" fill="white" />
	<path d="M90.6005 136.109H80.0089V128.846H108.853V136.109H98.2614V164.661H90.6005V136.109Z" fill="white" />
	<path d="M123.17 128.582H130.229L145.148 164.657H137.144L133.96 156.626H119.24L116.057 164.657H108.251L123.17 128.582ZM126.606 138.049L121.984 149.666H131.234L126.606 138.049Z" fill="white" />
	<path d="M46.4648 36.3466H38.804V72.162H46.4648V36.3466Z" fill="white" />
	<path d="M141.669 52.6742H101.553V59.9376H141.669V52.6742Z" fill="white" />
</svg>
