<svg width="88" height="96" viewBox="0 0 88 96" fill="none" xmlns="http://www.w3.org/2000/svg">
<path d="M87.6082 0H0.391846V96H87.6082V0Z" fill="#3600FA"/>
<path d="M27.7788 17.2031H31.1672L38.9982 27.7902V17.2031H42.6264V34.3975H39.5009L31.4069 23.4686V34.3975H27.7788V17.2031Z" fill="white"/>
<path d="M17.9316 48.0498V47.9993C17.9316 43.113 21.5106 39.1094 26.6437 39.1094C29.7952 39.1094 31.6786 40.1913 33.2327 41.7606L30.8929 44.5367C29.6046 43.3329 28.2903 42.5958 26.6206 42.5958C23.8042 42.5958 21.7764 45.0033 21.7764 47.9488V47.9963C21.7764 50.9448 23.758 53.3998 26.6206 53.3998C28.53 53.3998 29.6999 52.6152 31.0142 51.3847L33.354 53.816C31.6353 55.7063 29.7259 56.8863 26.5022 56.8863C21.5829 56.8922 17.9316 52.9867 17.9316 48.0498Z" fill="white"/>
<path d="M34.1138 48.0498V47.9993C34.1138 43.113 37.8603 39.1094 43.0165 39.1094C48.1727 39.1094 51.8731 43.0624 51.8731 47.9518V47.9993C51.8731 52.8886 48.1265 56.8922 42.9703 56.8922C37.8141 56.8922 34.1138 52.9392 34.1138 48.0498ZM48.0312 48.0498V47.9993C48.0312 45.0538 45.9311 42.5958 42.9703 42.5958C40.0095 42.5958 37.9585 45.0033 37.9585 47.9488V47.9963C37.9585 50.9448 40.0586 53.3998 43.0194 53.3998C45.9774 53.4058 48.0312 50.9983 48.0312 48.0498Z" fill="white"/>
<path d="M54.1897 39.4062H61.8272C63.9503 39.4062 65.5997 40.0215 66.6974 41.1509C67.6276 42.108 68.1302 43.4604 68.1302 45.0802V45.1278C68.1302 47.9039 66.6743 49.6485 64.5483 50.457L68.6299 56.5976H64.3316L60.7526 51.096H57.864V56.5976H54.1868V39.4062H54.1897ZM61.5874 47.7552C63.3784 47.7552 64.4039 46.7714 64.4039 45.324V45.2734C64.4039 43.6536 63.3062 42.8184 61.5152 42.8184H57.864V47.7552H61.5874Z" fill="white"/>
<path d="M37.3547 69.4404H18.8184V72.9269H37.3547V69.4404Z" fill="white"/>
<path d="M43.8801 65.0929H38.7961V61.6064H52.6413V65.0929H47.5574V78.7978H43.8801V65.0929Z" fill="white"/>
<path d="M59.5134 61.4795H62.9018L70.0627 78.7957H66.2208L64.6928 74.9407H57.6272L56.0991 78.7957H52.3525L59.5134 61.4795ZM61.1629 66.024L58.9444 71.5999H63.3842L61.1629 66.024Z" fill="white"/>
<path d="M22.695 17.207H19.0178V34.3984H22.695V17.207Z" fill="white"/>
<path d="M68.3931 25.0439H49.1375V28.5304H68.3931V25.0439Z" fill="white"/>
</svg>
