<svg width="33" height="33" viewBox="0 0 33 33" fill="none" xmlns="http://www.w3.org/2000/svg">
<g opacity="0.64">
<path d="M0.67749 0.891113H15.8991C15.8991 5.96779 15.8991 11.036 15.8991 16.1127C10.8224 16.1127 5.75417 16.1127 0.67749 16.1127V0.891113Z" fill="#F25022"/>
<path d="M17.4558 0.891113H32.6774C32.6774 5.96779 32.6774 11.036 32.6774 16.1127C27.6007 16.1127 22.5325 16.1127 17.4558 16.1127C17.4558 11.036 17.4558 5.95933 17.4558 0.891113Z" fill="#80BA01"/>
<path d="M0.67749 17.6611C5.75417 17.6611 10.8224 17.6611 15.8991 17.6611C15.8991 22.7378 15.8991 27.806 15.8991 32.8827H0.67749V17.6611Z" fill="#02A4EF"/>
<path d="M17.4558 17.6694C22.5325 17.6694 27.6007 17.6694 32.6774 17.6694C32.6774 22.7461 32.6774 27.8143 32.6774 32.891H17.4558C17.4558 27.8143 17.4558 22.7377 17.4558 17.6694Z" fill="#FFB902"/>
</g>
</svg>
