<svg width="100" height="26" viewBox="0 0 100 26" fill="none" xmlns="http://www.w3.org/2000/svg" class="redstone-logo-svg">
	<path d="M2.24987 4.07652V14.2032C2.24987 14.2032 2.11987 16.1032 3.9232 18.6965C5.72653 21.2932 10.4899 23.0632 10.4899 23.0632C10.4899 23.0632 15.2565 21.2899 17.0565 18.6965C18.8599 16.0999 18.7299 14.2032 18.7299 14.2032V4.07652L10.4865 2.93652L2.24987 4.07652Z" fill="#EE2842" />
	<path d="M18.8666 2.93652H2.12329V23.0632H18.8666V2.93652Z" fill="url(#paint0_linear_13_21499)" />
	<path d="M18.7365 14.2032V4.07652L10.4932 2.93652L2.24987 4.07652V14.2032C2.24987 14.2032 2.11987 16.1032 3.9232 18.6965C5.72653 21.2932 10.4899 23.0632 10.4899 23.0632C10.4899 23.0632 15.2565 21.2899 17.0565 18.6965C18.8599 16.0999 18.7299 14.2032 18.7299 14.2032H18.7365Z" stroke="#F99B1C" stroke-width="1.77" stroke-miterlimit="10" />
	<path fill-rule="evenodd" clip-rule="evenodd" d="M4.88798 4.30248C6.81453 4.035 9.25875 3.69566 10.0099 3.63345C10.0829 3.62768 10.1537 3.62303 10.2235 3.62012H10.5422C13.7723 3.75162 14.2324 7.73861 13.9832 10.0234C13.8566 11.1768 12.6866 13.1368 10.4732 13.2234C10.4732 13.2234 12.6299 17.0934 16.3266 18.6801C15.4266 19.7201 13.9966 20.7968 11.9499 21.8034L7.7599 17.9034L7.96323 21.2034C3.07657 18.8234 2.8999 14.6234 2.8999 14.6234L2.81323 4.58678C3.27019 4.52709 4.02744 4.42195 4.88798 4.30248Z" fill="#FDB913" />
	<path d="M10.0099 3.63345L9.99691 3.46896L9.99628 3.46901L10.0099 3.63345ZM4.88798 4.30248L4.86529 4.13905L4.88798 4.30248ZM10.2235 3.62012V3.45497L10.2167 3.45526L10.2235 3.62012ZM10.5422 3.62012L10.5489 3.45512H10.5422V3.62012ZM13.9832 10.0234L14.1472 10.0415L14.1473 10.0413L13.9832 10.0234ZM10.4732 13.2234L10.4668 13.0586L10.1983 13.0691L10.3291 13.3038L10.4732 13.2234ZM16.3266 18.6801L16.4513 18.7881L16.599 18.6175L16.3916 18.5285L16.3266 18.6801ZM11.9499 21.8034L11.8375 21.9242L11.9207 22.0017L12.0227 21.9515L11.9499 21.8034ZM7.7599 17.9034L7.87232 17.7827L7.56979 17.5011L7.59521 17.9136L7.7599 17.9034ZM7.96323 21.2034L7.89098 21.3518L8.14532 21.4757L8.12792 21.1933L7.96323 21.2034ZM2.8999 14.6234L2.73481 14.6249L2.73505 14.6304L2.8999 14.6234ZM2.81323 4.58678L2.79186 4.42317L2.64698 4.4421L2.64824 4.58821L2.81323 4.58678ZM9.99628 3.46901C9.23918 3.53171 6.78807 3.8721 4.86529 4.13905L4.91067 4.46591C6.84099 4.19791 9.27831 3.8596 10.0235 3.79788L9.99628 3.46901ZM10.2167 3.45526C10.1442 3.45828 10.0712 3.46309 9.99691 3.46896L10.0229 3.79793C10.0945 3.79228 10.1632 3.78777 10.2304 3.78497L10.2167 3.45526ZM10.5422 3.45512H10.2235V3.78512H10.5422V3.45512ZM14.1473 10.0413C14.2735 8.88335 14.2216 7.28728 13.7219 5.95629C13.2197 4.61866 12.2519 3.52459 10.5489 3.45525L10.5355 3.78498C12.0626 3.84715 12.9399 4.81233 13.4129 6.07228C13.8885 7.33886 13.9421 8.87871 13.8192 10.0056L14.1473 10.0413ZM10.4797 13.3883C11.6379 13.343 12.5235 12.8063 13.133 12.1343C13.7392 11.4659 14.0798 10.6558 14.1472 10.0415L13.8192 10.0054C13.76 10.5445 13.4523 11.291 12.8885 11.9126C12.328 12.5306 11.5219 13.0173 10.4668 13.0586L10.4797 13.3883ZM16.3916 18.5285C14.5754 17.7489 13.1315 16.4052 12.1388 15.2493C11.6432 14.6722 11.2621 14.1443 11.005 13.761C10.8765 13.5694 10.7792 13.4142 10.7141 13.3071C10.6816 13.2536 10.6572 13.2122 10.641 13.1844C10.6329 13.1705 10.6269 13.1599 10.6229 13.153C10.621 13.1495 10.6195 13.147 10.6186 13.1453C10.6181 13.1445 10.6178 13.1439 10.6176 13.1435C10.6175 13.1433 10.6174 13.1432 10.6174 13.1431C10.6174 13.1431 10.6174 13.1431 10.6173 13.1431C10.6173 13.1431 10.6174 13.1431 10.4732 13.2234C10.3291 13.3038 10.3291 13.3038 10.3292 13.3039C10.3292 13.3039 10.3292 13.304 10.3293 13.3041C10.3294 13.3043 10.3295 13.3045 10.3297 13.3048C10.33 13.3054 10.3304 13.3062 10.331 13.3072C10.3322 13.3093 10.3339 13.3123 10.3361 13.3162C10.3406 13.324 10.3471 13.3354 10.3557 13.3502C10.3729 13.3798 10.3984 13.4231 10.4321 13.4785C10.4995 13.5894 10.5995 13.7488 10.7309 13.9448C10.9938 14.3368 11.3828 14.8755 11.8885 15.4643C12.8983 16.6401 14.381 18.0246 16.2615 18.8317L16.3916 18.5285ZM12.0227 21.9515C14.0825 20.9384 15.5327 19.8497 16.4513 18.7881L16.2018 18.5721C15.3205 19.5906 13.9107 20.6552 11.8771 21.6554L12.0227 21.9515ZM7.64748 18.0242L11.8375 21.9242L12.0623 21.6827L7.87232 17.7827L7.64748 18.0242ZM8.12792 21.1933L7.92459 17.8933L7.59521 17.9136L7.79854 21.2136L8.12792 21.1933ZM2.8999 14.6234C2.73505 14.6304 2.73505 14.6305 2.73506 14.6306C2.73506 14.6307 2.73506 14.6308 2.73507 14.6309C2.73508 14.6312 2.73509 14.6315 2.73511 14.6319C2.73515 14.6326 2.7352 14.6337 2.73526 14.6349C2.73539 14.6374 2.73558 14.641 2.73585 14.6455C2.7364 14.6545 2.73727 14.6675 2.73859 14.6842C2.74125 14.7177 2.74575 14.7662 2.75322 14.8283C2.76814 14.9524 2.79494 15.1308 2.84256 15.3517C2.93779 15.7933 3.11648 16.4056 3.45067 17.0931C4.12005 18.4702 5.41102 20.1439 7.89098 21.3518L8.03548 21.0551C5.62878 19.8829 4.38808 18.2667 3.74746 16.9488C3.42665 16.2888 3.25576 15.7023 3.16515 15.2821C3.11986 15.072 3.09467 14.9037 3.08085 14.7889C3.07394 14.7314 3.06988 14.6874 3.06756 14.6581C3.0664 14.6435 3.06568 14.6326 3.06526 14.6256C3.06505 14.6221 3.06491 14.6196 3.06483 14.6181C3.06479 14.6173 3.06477 14.6168 3.06476 14.6165C3.06475 14.6164 3.06475 14.6163 3.06475 14.6163C3.06475 14.6163 3.06475 14.6164 3.06475 14.6164C3.06475 14.6164 3.06475 14.6165 2.8999 14.6234ZM2.64824 4.58821L2.73491 14.6249L3.06489 14.622L2.97823 4.58536L2.64824 4.58821ZM4.86529 4.13905C4.0044 4.25857 3.24799 4.36359 2.79186 4.42317L2.83461 4.75039C3.2924 4.69059 4.05049 4.58534 4.91067 4.46591L4.86529 4.13905Z" fill="#F99B1C" />
	<path d="M10.0099 3.63337C8.92323 3.72337 4.29323 4.39337 2.81323 4.5867L2.8999 14.6234C2.8999 14.6234 3.07657 18.8234 7.96323 21.2034L7.7599 17.9034L11.9499 21.8034C13.9966 20.7967 15.4266 19.72 16.3266 18.68C12.6299 17.0934 10.4732 13.2234 10.4732 13.2234C12.6866 13.1367 13.8566 11.1767 13.9832 10.0234C14.2366 7.70003 13.7566 3.6167 10.3766 3.6167C10.2566 3.6167 10.1366 3.62337 10.0099 3.63337" stroke="#F99B1C" stroke-width="0.33" stroke-miterlimit="10" />
	<path d="M7.92989 5.33008L8.25989 8.00008L9.98989 6.18674L8.79323 8.38674L10.9732 8.02341L8.99656 9.01341L11.6999 10.2501L8.79323 9.64008L9.55323 11.1501L8.25989 10.0267L7.92989 12.2101L7.60323 10.0267L5.39656 12.4901L7.06989 9.64008L4.88989 10.0001L6.86656 9.01341L5.20989 8.12341L7.06989 8.38674L6.04989 6.42675L7.60323 8.00008L7.92989 5.33008Z" fill="white" />
	<path d="M90.8067 21.3866C90.3967 21.7866 89.8933 21.9866 89.2967 21.9866C88.7 21.9866 88.1933 21.7866 87.7867 21.3866C87.3767 20.9866 87.1733 20.49 87.1733 19.8966C87.1733 19.3033 87.3767 18.8066 87.7867 18.4066C88.1967 18.0066 88.7 17.8066 89.2967 17.8066C89.8933 17.8066 90.4 18.0066 90.8067 18.4066C91.2167 18.8066 91.42 19.3033 91.42 19.8966C91.42 20.49 91.2167 20.99 90.8067 21.3866ZM90.5 19.9C90.5 19.54 90.3833 19.23 90.1533 18.9766C89.9233 18.7233 89.6367 18.5933 89.3 18.5933C88.9633 18.5933 88.6767 18.72 88.4467 18.9766C88.2167 19.2333 88.1 19.54 88.1 19.9C88.1 20.26 88.2167 20.5666 88.4467 20.82C88.6767 21.0733 88.9633 21.2 89.3 21.2C89.6367 21.2 89.9233 21.0733 90.1533 20.82C90.3833 20.5666 90.5 20.26 90.5 19.9Z" fill="#00468B" />
	<path d="M63.5001 17.873V18.6764H61.4834V19.5097H63.2967V20.2797H61.4834V21.1197H63.5634V21.9197H60.5801V17.873H63.5001Z" fill="#00468B" />
	<path d="M30.8666 8.60346C30.8666 10.2368 30.2199 11.2935 28.9266 11.7668L31.5066 15.4135H28.7066L26.4466 12.1601H24.8699V15.4135H22.5933V5.2168H26.4599C28.0433 5.2168 29.1733 5.48346 29.8499 6.02013C30.5266 6.55346 30.8633 7.4168 30.8633 8.60013L30.8666 8.60346ZM28.1233 9.81346C28.4066 9.56013 28.5466 9.16013 28.5466 8.61013C28.5466 8.06013 28.3999 7.68346 28.1099 7.48013C27.8199 7.2768 27.3066 7.17346 26.5799 7.17346H24.8733V10.1935H26.5366C27.3133 10.1935 27.8433 10.0668 28.1266 9.81346H28.1233Z" fill="#EE2842" />
	<path d="M39.5133 5.2168V7.24346H34.4367V9.34346H39.0033V11.2835H34.4367V13.3968H39.6733V15.4101H32.1633V5.2168H39.5133Z" fill="#EE2842" />
	<path d="M48.5998 6.55346C49.5731 7.44346 50.0598 8.68013 50.0598 10.2668C50.0598 11.8535 49.5865 13.1068 48.6365 14.0301C47.6898 14.9535 46.2431 15.4168 44.2965 15.4168H40.8098V5.2168H44.4131C46.2298 5.2168 47.6265 5.66013 48.5998 6.55013V6.55346ZM46.9298 12.6135C47.4898 12.0901 47.7698 11.3268 47.7698 10.3235C47.7698 9.32013 47.4898 8.55013 46.9298 8.01346C46.3698 7.47346 45.5131 7.20346 44.3565 7.20346H43.0865V13.4035H44.5298C45.5698 13.4035 46.3698 13.1401 46.9298 12.6168V12.6135Z" fill="#EE2842" />
	<path d="M53.3033 7.2534C53.0833 7.4334 52.9766 7.67007 52.9766 7.96673C52.9766 8.2634 53.1099 8.50007 53.3766 8.6734C53.6433 8.84673 54.2599 9.05673 55.2299 9.2934C56.1966 9.5334 56.9499 9.89007 57.4833 10.3667C58.0166 10.8434 58.2866 11.5401 58.2866 12.4534C58.2866 13.3667 57.9433 14.1101 57.2566 14.6767C56.5699 15.2467 55.6699 15.5301 54.5499 15.5301C52.9366 15.5301 51.4833 14.9334 50.1899 13.7367L51.5466 12.0734C52.6466 13.0367 53.6599 13.5167 54.5933 13.5167C55.0099 13.5167 55.3399 13.4267 55.5766 13.2467C55.8133 13.0667 55.9333 12.8234 55.9333 12.5167C55.9333 12.2101 55.8066 11.9667 55.5533 11.7867C55.2999 11.6067 54.7999 11.4234 54.0499 11.2401C52.8633 10.9567 51.9966 10.5901 51.4466 10.1401C50.8966 9.68673 50.6233 8.97673 50.6233 8.01007C50.6233 7.0434 50.9699 6.29673 51.6666 5.77007C52.3633 5.24673 53.2299 4.9834 54.2699 4.9834C54.9499 4.9834 55.6299 5.10007 56.3133 5.3334C56.9933 5.56673 57.5866 5.89673 58.0933 6.32673L56.9399 7.99007C56.0566 7.32007 55.1399 6.9834 54.1966 6.9834C53.8166 6.9834 53.5199 7.0734 53.2999 7.2534H53.3033Z" fill="#EE2842" />
	<path d="M63.6533 7.1868V15.4135H61.3767V7.1868H58.49V5.2168H66.54V7.1868H63.6533Z" fill="#EE2842" />
	<path d="M75.3766 14.0067C74.3466 15.0134 73.0766 15.5167 71.5699 15.5167C70.0632 15.5167 68.7932 15.0134 67.7632 14.0067C66.7332 13.0001 66.2166 11.7501 66.2166 10.2501C66.2166 8.75007 66.7332 7.50007 67.7632 6.4934C68.7932 5.48673 70.0632 4.9834 71.5699 4.9834C73.0766 4.9834 74.3466 5.48673 75.3766 6.4934C76.4066 7.50007 76.9232 8.75007 76.9232 10.2501C76.9232 11.7501 76.4066 13.0001 75.3766 14.0067ZM74.6032 10.2601C74.6032 9.35007 74.3132 8.57673 73.7299 7.9334C73.1466 7.29007 72.4299 6.97007 71.5799 6.97007C70.7299 6.97007 70.0132 7.29007 69.4299 7.9334C68.8466 8.5734 68.5532 9.35007 68.5532 10.2601C68.5532 11.1701 68.8466 11.9434 69.4299 12.5801C70.0132 13.2167 70.7299 13.5367 71.5799 13.5367C72.4299 13.5367 73.1466 13.2167 73.7299 12.5801C74.3132 11.9434 74.6032 11.1701 74.6032 10.2601Z" fill="#EE2842" />
	<path d="M84.9466 5.2168H87.2232V15.4101H84.9466L80.0899 9.02346V15.4101H77.8132V5.2168H79.9432L84.9466 11.7801V5.2168Z" fill="#EE2842" />
	<path d="M96.0434 5.2168V7.24346H90.9667V9.34346H95.5334V11.2835H90.9667V13.3968H96.2034V15.4101H88.6934V5.2168H96.0434Z" fill="#EE2842" />
	<path d="M25.4765 17.853V18.6464H23.5999V19.5197H25.3832V20.313H23.5999V21.8997H22.6965V17.853H25.4765Z" fill="#00468B" />
	<path d="M29.2432 17.853V18.6564H27.2266V19.4897H29.0399V20.2597H27.2266V21.0997H29.3066V21.8997H26.3232V17.853H29.2432Z" fill="#00468B" />
	<path d="M33.2831 18.383C33.6698 18.7364 33.8631 19.2264 33.8631 19.8564C33.8631 20.4864 33.6764 20.983 33.2998 21.3497C32.9231 21.7164 32.3498 21.8997 31.5764 21.8997H30.1931V17.853H31.6231C32.3464 17.853 32.8998 18.0297 33.2864 18.383H33.2831ZM32.6198 20.7897C32.8431 20.5797 32.9531 20.2797 32.9531 19.8797C32.9531 19.4797 32.8431 19.1764 32.6198 18.963C32.3964 18.7497 32.0564 18.643 31.5964 18.643H31.0931V21.103H31.6664C32.0798 21.103 32.3964 20.9997 32.6198 20.7897Z" fill="#00468B" />
	<path d="M37.6431 17.853V18.6564H35.6265V19.4897H37.4398V20.2597H35.6265V21.0997H37.7065V21.8997H34.7231V17.853H37.6431Z" fill="#00468B" />
	<path d="M41.8766 19.1964C41.8766 19.8464 41.6199 20.263 41.1066 20.453L42.1333 21.8997H41.0199L40.1233 20.6097H39.4966V21.8997H38.5933V17.853H40.1266C40.7566 17.853 41.2033 17.9597 41.4733 18.173C41.7399 18.3864 41.8766 18.7264 41.8766 19.1997V19.1964ZM40.7866 19.6764C40.8999 19.5764 40.9533 19.4164 40.9533 19.1997C40.9533 18.983 40.8966 18.833 40.7799 18.7497C40.6633 18.6664 40.4599 18.6297 40.1733 18.6297H39.4966V19.8297H40.1566C40.4666 19.8297 40.6766 19.7797 40.7866 19.6797V19.6764Z" fill="#00468B" />
	<path d="M45.4798 21.8997L45.1032 21.0264H43.4065L43.0298 21.8997H42.0698L43.8198 17.853H44.6932L46.4432 21.8997H45.4832H45.4798ZM44.2565 19.0564L43.7465 20.233H44.7598L44.2565 19.0564Z" fill="#00468B" />
	<path d="M46.99 21.8997V17.853H47.8933V21.0964H49.62V21.8997H46.99Z" fill="#00468B" />
	<path d="M53.83 21.0998C54.2733 21.0998 54.6366 20.9231 54.92 20.5731L55.5 21.1698C55.04 21.6864 54.5 21.9464 53.8766 21.9464C53.2533 21.9464 52.74 21.7498 52.3366 21.3564C51.9333 20.9631 51.73 20.4664 51.73 19.8664C51.73 19.2664 51.9366 18.7664 52.3466 18.3631C52.7566 17.9631 53.26 17.7598 53.8566 17.7598C54.52 17.7598 55.0766 18.0131 55.5233 18.5198L54.96 19.1564C54.6733 18.7998 54.32 18.6231 53.8933 18.6231C53.5533 18.6231 53.2633 18.7331 53.0233 18.9564C52.7833 19.1798 52.66 19.4764 52.66 19.8531C52.66 20.2298 52.7733 20.5331 53 20.7598C53.2266 20.9864 53.5033 21.0998 53.8266 21.0998H53.83Z" fill="#00468B" />
	<path d="M59.5731 19.1964C59.5731 19.8464 59.3165 20.263 58.8031 20.453L59.8298 21.8997H58.7165L57.8198 20.6097H57.1931V21.8997H56.2898V17.853H57.8231C58.4531 17.853 58.8998 17.9597 59.1698 18.173C59.4365 18.3864 59.5731 18.7264 59.5731 19.1997V19.1964ZM58.4831 19.6764C58.5965 19.5764 58.6498 19.4164 58.6498 19.1997C58.6498 18.983 58.5931 18.833 58.4765 18.7497C58.3598 18.6664 58.1565 18.6297 57.8698 18.6297H57.1931V19.8297H57.8531C58.1631 19.8297 58.3731 19.7797 58.4831 19.6797V19.6764Z" fill="#00468B" />
	<path d="M67.5431 18.383C67.9298 18.7364 68.1231 19.2264 68.1231 19.8564C68.1231 20.4864 67.9365 20.983 67.5598 21.3497C67.1831 21.7164 66.6098 21.8997 65.8365 21.8997H64.4531V17.853H65.8831C66.6065 17.853 67.1598 18.0297 67.5465 18.383H67.5431ZM66.8798 20.7897C67.1031 20.5797 67.2131 20.2797 67.2131 19.8797C67.2131 19.4797 67.1031 19.1764 66.8798 18.963C66.6565 18.7497 66.3165 18.643 65.8565 18.643H65.3531V21.103H65.9265C66.3398 21.103 66.6565 20.9997 66.8798 20.7897Z" fill="#00468B" />
	<path d="M68.9866 17.853H69.8899V21.8997H68.9866V17.853Z" fill="#00468B" />
	<path d="M72.6799 18.6329V21.8996H71.7766V18.6329H70.6299V17.8496H73.8266V18.6329H72.6799Z" fill="#00468B" />
	<path d="M77.25 20.8529C77.4 21.0396 77.6033 21.1329 77.8566 21.1329C78.11 21.1329 78.3133 21.0396 78.4633 20.8529C78.6133 20.6663 78.6866 20.4096 78.6866 20.0863V17.8496H79.59V20.1129C79.59 20.6996 79.4266 21.1496 79.1033 21.4663C78.78 21.7796 78.3633 21.9396 77.86 21.9396C77.3566 21.9396 76.9366 21.7829 76.6133 21.4663C76.2866 21.1496 76.1233 20.6996 76.1233 20.1163V17.8529H77.0266V20.0896C77.0266 20.4129 77.1033 20.6696 77.2533 20.8563L77.25 20.8529Z" fill="#00468B" />
	<path d="M83.4398 17.853H84.3431V21.8997H83.4398L81.5098 19.363V21.8997H80.6064V17.853H81.4531L83.4398 20.4597V17.853Z" fill="#00468B" />
	<path d="M85.4199 17.853H86.3232V21.8997H85.4199V17.853Z" fill="#00468B" />
	<path d="M95.0965 17.853H95.9998V21.8997H95.0965L93.1665 19.363V21.8997H92.2632V17.853H93.1098L95.0965 20.4597V17.853Z" fill="#00468B" />
	<path d="M97.7501 18.3464C97.7501 18.6897 97.4801 18.9597 97.1301 18.9597C96.7801 18.9597 96.5034 18.6897 96.5034 18.3464C96.5034 18.0031 96.7801 17.7397 97.1301 17.7397C97.4801 17.7397 97.7501 18.0097 97.7501 18.3464ZM96.6601 18.3464C96.6601 18.6164 96.8601 18.8297 97.1334 18.8297C97.4067 18.8297 97.5967 18.6164 97.5967 18.3497C97.5967 18.0831 97.4001 17.8631 97.1301 17.8631C96.8601 17.8631 96.6601 18.0797 96.6601 18.3464ZM97.0334 18.6631H96.8934V18.0564C96.9501 18.0464 97.0267 18.0364 97.1267 18.0364C97.2401 18.0364 97.2934 18.0564 97.3367 18.0797C97.3701 18.1064 97.3967 18.1531 97.3967 18.2131C97.3967 18.2797 97.3434 18.3297 97.2701 18.3531V18.3597C97.3301 18.3831 97.3634 18.4264 97.3801 18.5064C97.4001 18.5997 97.4101 18.6364 97.4234 18.6564H97.2734C97.2534 18.6331 97.2434 18.5797 97.2267 18.5097C97.2167 18.4431 97.1801 18.4131 97.1001 18.4131H97.0334V18.6564V18.6631ZM97.0367 18.3197H97.1034C97.1801 18.3197 97.2434 18.2931 97.2434 18.2297C97.2434 18.1731 97.2034 18.1364 97.1134 18.1364C97.0767 18.1364 97.0501 18.1397 97.0367 18.1431V18.3164V18.3197Z" fill="#00468B" />
	<defs>
		<linearGradient id="paint0_linear_13_21499" x1="2.12329" y1="12.9999" x2="18.8633" y2="12.9999" gradientUnits="userSpaceOnUse">
			<stop stop-color="#E32A26" />
			<stop offset="0.04" stop-color="#E32A26" />
			<stop offset="0.11" stop-color="#E52F29" />
			<stop offset="0.33" stop-color="#EB3B32" />
			<stop offset="0.55" stop-color="#EE4036" />
			<stop offset="0.68" stop-color="#EA3D35" />
			<stop offset="0.81" stop-color="#DE3633" />
			<stop offset="0.93" stop-color="#CB2930" />
			<stop offset="1" stop-color="#BD202E" />
		</linearGradient>
	</defs>
</svg>
