<svg width="14" height="15" viewBox="0 0 14 15" fill="none" xmlns="http://www.w3.org/2000/svg">
<path fill-rule="evenodd" clip-rule="evenodd" d="M13.3864 1.4681L0.773539 14.5291L0.0541992 13.8345L2.41093 11.394C1.57949 10.6441 0.868733 9.64668 0.278358 8.40302C0.158045 8.14834 0.158045 7.85146 0.278358 7.59834C1.75961 4.47646 3.99711 2.90615 7.00023 2.90615C8.10144 2.90615 9.10002 3.11751 9.9962 3.53924L12.6671 0.773438L13.3864 1.4681ZM9.1593 4.40587C8.50223 4.15471 7.78386 4.03115 7.00023 4.03115C4.47992 4.03115 2.63461 5.30927 1.33305 7.9999C1.86064 9.09056 2.47758 9.94913 3.19261 10.5846L4.48548 9.24575C4.29508 8.87173 4.18773 8.44835 4.18773 7.9999C4.18773 6.48115 5.41898 5.2499 6.93773 5.2499C7.35203 5.2499 7.74494 5.34152 8.09729 5.50561L9.1593 4.40587ZM7.33491 6.29508L5.24776 8.45639C5.20861 8.31088 5.18773 8.15785 5.18773 7.9999C5.18773 7.03271 5.97054 6.2499 6.93773 6.2499C7.07437 6.2499 7.20732 6.26552 7.33491 6.29508ZM7.00023 13.0936C5.92118 13.0936 4.94066 12.8907 4.05848 12.4858L4.89881 11.6156C5.54018 11.8522 6.23946 11.9686 7.00023 11.9686C9.52211 11.9686 11.3674 10.6905 12.6674 7.9999C12.1502 6.93069 11.5471 6.08454 10.8499 5.453L11.6314 4.64381C12.4448 5.3893 13.1417 6.37403 13.7221 7.59677C13.8424 7.85459 13.8424 8.14834 13.7221 8.40146C12.2409 11.5233 10.0034 13.0936 7.00023 13.0936ZM6.93773 10.7499C6.57891 10.7499 6.23614 10.6812 5.92186 10.5562L6.71411 9.73577C6.78733 9.7451 6.86196 9.7499 6.93773 9.7499C7.90492 9.7499 8.68773 8.96709 8.68773 7.9999C8.68773 7.90314 8.6799 7.80822 8.66483 7.71575L9.45696 6.89547C9.60536 7.23349 9.68773 7.60708 9.68773 7.9999C9.68773 9.51865 8.45648 10.7499 6.93773 10.7499Z" fill="#99A6B0"/>
</svg>
