<svg width="87" height="20" viewBox="0 0 87 20" fill="none" xmlns="http://www.w3.org/2000/svg" class="shutterfly-logo-svg">
	<g clip-path="url(#clip0_13_21469)">
		<path d="M69.5533 4.44444V6.22222H66.9772V15.0222H65.2006V6.22222H63.957V4.44444H65.2006C65.2006 2.57777 65.9113 1.06666 67.0661 0.533328C68.2208 -0.0888938 69.5533 -4.96069e-06 69.5533 -4.96069e-06V1.77777C69.3756 1.77777 68.8426 1.68888 68.132 2.04444C67.4214 2.39999 66.9772 3.19999 66.9772 4.35555V4.44444H69.5533Z" fill="#F16122" />
		<path d="M37.5748 6.22218V4.4444H34.9987V0.177734H33.2221V4.4444H31.9785V6.22218H33.2221V10.7555C33.2221 12.6222 34.0216 14.0444 35.0875 14.6666C36.2423 15.2888 37.5748 15.1111 37.5748 15.1111V13.3333C37.3971 13.3333 36.8641 13.4222 36.1535 13.0666C35.4429 12.7111 34.9987 11.8222 34.9987 10.7555V6.22218H37.5748Z" fill="#F16122" />
		<path d="M44.5923 6.22218V4.4444H42.0163V0.177734H40.2397V4.4444H38.9961V6.22218H40.2397V10.7555C40.2397 12.6222 41.0392 14.0444 42.1051 14.6666C43.2599 15.2888 44.5923 15.1111 44.5923 15.1111V13.3333C44.4147 13.3333 43.8817 13.4222 43.1711 13.0666C42.4604 12.7111 42.0163 11.8222 42.0163 10.7555V6.22218H44.5923Z" fill="#F16122" />
		<path d="M28.4253 10.5777C28.4253 12.2666 27.6259 13.3332 26.2046 13.3332C24.8722 13.3332 23.9839 12.2666 23.9839 10.5777V4.44434H22.2073V10.6666C22.2073 13.4221 23.7174 15.111 26.2046 15.111C28.6918 15.111 30.2019 13.4221 30.2019 10.6666V4.44434H28.4253V10.5777Z" fill="#F16122" />
		<path d="M73.6394 0.177734H71.8628V14.9333H73.6394V0.177734Z" fill="#F16122" />
		<path d="M5.24093 15.1111C2.66488 15.1111 0.444146 13.6889 0 12.4444L1.33244 11.2889C1.95424 12.1778 3.19785 13.3333 5.24093 13.3333C7.284 13.3333 8.52761 12.5333 8.52761 10.9333C8.52761 9.24444 7.01751 8.71111 4.88561 8.17778C2.66488 7.64444 0.444146 6.93333 0.444146 4C0.355317 1.77778 2.48722 0 5.24093 0C7.63931 0 9.4159 1.15556 9.94887 2.04444L8.52761 3.2C7.81697 2.31111 6.57336 1.77778 5.24093 1.77778C3.37551 1.77778 2.1319 2.66667 2.1319 4.08889C2.1319 5.77778 3.46434 6.13333 5.50741 6.66667C7.9058 7.28889 10.2154 8.17778 10.2154 11.0222C10.3042 13.5111 8.26112 15.1111 5.24093 15.1111Z" fill="#F16122" />
		<path d="M61.7363 4.35596C60.4039 4.35596 59.5156 4.8004 58.8938 5.6004V4.44485H57.1172V15.0226H58.8938V8.8004C58.8938 7.11151 60.315 6.13374 61.7363 6.13374C61.914 6.13374 62.0916 6.13374 62.2693 6.22262V4.44485C62.0916 4.35596 61.914 4.35596 61.7363 4.35596Z" fill="#F16122" />
		<path d="M50.6326 15.111C47.7013 15.111 45.6582 12.7999 45.6582 9.68882C45.6582 6.57771 47.6124 4.2666 50.455 4.2666C53.2975 4.35549 55.0741 6.48882 55.0741 9.77771C55.0741 9.95549 55.0741 10.0444 55.0741 10.311V10.3999H47.4348C47.7013 12.2666 48.8561 13.511 50.7215 13.511C51.9651 13.511 52.7646 13.1555 53.6528 12.1777L53.7417 12.0888L54.8076 13.0666L54.7188 13.1555C53.4752 14.5777 52.4092 15.111 50.6326 15.111ZM53.2975 8.97771C53.1199 7.37771 52.4092 5.8666 50.3662 5.8666C48.7672 5.8666 47.6124 7.11105 47.346 8.97771H53.2975Z" fill="#F16122" />
		<path d="M16.4335 4.35551C15.1899 4.35551 14.3904 4.88885 13.9463 5.33329V0.177734H12.1697V15.0222H13.9463V8.79996C13.9463 7.11107 15.0122 6.0444 16.4335 6.0444C17.8547 6.0444 18.5654 7.28885 18.5654 8.97774V14.9333H20.342V8.97774C20.342 5.68885 18.5654 4.35551 16.4335 4.35551Z" fill="#F16122" />
		<path d="M82.1671 4.44482V10.667C82.1671 12.3559 81.1011 13.4226 79.7687 13.4226C78.4362 13.4226 77.7256 12.1782 77.7256 10.4893V4.44482H76.0378V10.4004C76.0378 13.7782 77.7256 15.1115 79.8575 15.1115C81.0123 15.1115 81.9006 14.5782 82.2559 14.1337V15.6448C82.2559 16.8004 81.8118 17.5115 81.1011 17.867C80.3905 18.2226 79.9463 18.1337 79.6798 18.1337V19.9115C79.6798 19.9115 81.0123 20.0893 82.1671 19.467C83.233 18.8448 84.0325 17.4226 84.0325 15.5559V4.44482H82.1671Z" fill="#F16122" />
		<path d="M86.3419 13.6892C86.3419 13.6003 86.3419 13.5114 86.2531 13.5114C86.1643 13.4225 86.0754 13.3336 85.8978 13.3336H85.4536V14.3114H85.6313V13.9558H85.8089L86.0754 14.3114H86.2531L85.9866 13.9558C86.2531 13.9558 86.3419 13.8669 86.3419 13.6892ZM85.8978 13.8669H85.6313V13.6003H85.8978C85.9866 13.6003 86.0754 13.6892 86.0754 13.778C86.0754 13.778 86.0754 13.8669 85.8978 13.8669ZM85.8978 12.8892C85.3648 12.8892 84.9207 13.3336 84.9207 13.8669C84.9207 14.4003 85.3648 14.8447 85.8978 14.8447C86.4307 14.8447 86.8749 14.4003 86.8749 13.8669C86.8749 13.3336 86.4307 12.8892 85.8978 12.8892ZM85.8978 14.6669C85.4536 14.6669 85.0983 14.3114 85.0983 13.8669C85.0983 13.4225 85.4536 13.0669 85.8978 13.0669C86.3419 13.0669 86.6972 13.4225 86.6972 13.8669C86.6972 14.3114 86.3419 14.6669 85.8978 14.6669Z" fill="#F16122" />
	</g>
	<defs>
		<clipPath id="clip0_13_21469">
			<rect width="86.875" height="20" fill="white" />
		</clipPath>
	</defs>
</svg>
