<svg width="89" height="20" viewBox="0 0 89 20" fill="none" xmlns="http://www.w3.org/2000/svg" class="vitamix-logo-svg">
	<g clip-path="url(#clip0_13_21483)">
		<path d="M38.396 3.51842C38.396 3.51842 32.1859 1.95941 29.8278 7.90672C28.9783 10.0576 28.2899 11.8042 28.2899 11.8042L25.1263 3.6772H21.6257L27.045 16.8999H29.5349C29.5349 16.8999 32.1273 10.6639 33.1819 8.12325C35.0127 3.74938 37.2536 3.80712 38.3228 3.6772L38.396 3.51842Z" fill="#DB0025" />
		<path d="M55.1517 13.8832V8.45554L52.6764 8.81642C51.9587 8.49884 51.3289 8.35449 50.7284 8.35449C48.2532 8.35449 46.3931 10.2599 46.3931 12.9305C46.3931 15.5288 48.1214 17.2755 50.2012 17.2755C50.9774 17.2755 51.6658 17.0878 52.3542 16.5681L52.6178 17.2755L55.5325 16.5681C55.2835 15.9185 55.1517 15.8608 55.1517 13.8832ZM52.2517 14.6049C51.7976 15.038 51.3875 15.1679 50.9921 15.1679C50.0547 15.1679 49.2198 14.3018 49.2198 12.9016C49.2198 11.4148 50.1572 10.4187 51.2411 10.4187C51.5779 10.4187 51.8855 10.5198 52.237 10.7074V14.6049H52.2517Z" fill="#DB0025" />
		<path d="M76.4331 16.8852H79.3185L80.9735 14.7633L82.4968 16.8852H85.8948L82.7604 12.5258L85.7483 8.68604H82.9069L81.3983 10.6059L80.0069 8.68604H76.6235L79.6114 12.8434L76.4331 16.8852Z" fill="#DB0025" />
		<path d="M38.2057 16.8858V8.7876L35.2764 9.20622V16.8858H38.2057Z" fill="#DB0025" />
		<path d="M35.2764 6.16011V8.13774L38.2057 7.71912V5.72705L35.2764 6.16011Z" fill="#DB0025" />
		<path d="M72.376 6.16011V8.13774L75.3199 7.70468V5.72705L72.376 6.16011Z" fill="#DB0025" />
		<path d="M75.3199 16.8858V8.7876L72.3906 9.20622V16.8858H75.3199Z" fill="#DB0025" />
		<path d="M65.2724 16.8853V12.8434C65.2724 11.5154 65.9022 10.8802 66.781 10.8802C67.4401 10.8802 67.8209 11.3421 67.8209 12.1794V16.8853H70.7209V11.602C70.7209 9.49442 69.9007 8.45508 68.0113 8.45508C66.8688 8.45508 65.9022 8.97475 65.0966 10.0285C64.5547 8.93144 63.7931 8.45508 62.5774 8.45508C61.4203 8.45508 60.5269 8.97475 59.6041 10.0574V8.45508L56.9092 8.84483V16.8708H59.8092V12.829C59.8092 11.5009 60.439 10.8658 61.3178 10.8658C61.9769 10.8658 62.3577 11.3277 62.3577 12.1649V16.8708H65.2724V16.8853Z" fill="#DB0025" />
		<path d="M45.353 16.7992C44.4303 16.5249 43.947 15.6588 43.947 14.5617V10.8374H45.9243V8.67211H43.9616V5.71289L41.003 6.16038V8.67211H39.7874V10.8374H41.003V14.1286C41.003 15.7021 41.1495 16.5682 41.999 16.8858H45.353V16.7992Z" fill="#DB0025" />
		<path d="M86.4072 16.0772C86.4072 15.6297 86.7734 15.2544 87.2274 15.2544C87.6961 15.2544 88.0476 15.6153 88.0476 16.0628C88.0476 16.5103 87.6815 16.8711 87.2274 16.8711C86.7587 16.8856 86.4072 16.5247 86.4072 16.0772ZM87.9012 16.0772C87.9012 15.7019 87.6082 15.3987 87.2274 15.3987C86.8466 15.3987 86.5537 15.7019 86.5537 16.0772C86.5537 16.4381 86.8466 16.7412 87.2274 16.7412C87.6082 16.7557 87.9012 16.4525 87.9012 16.0772ZM86.9052 15.6441H87.286C87.4764 15.6441 87.6082 15.7308 87.6082 15.904C87.6082 16.0339 87.535 16.1205 87.4178 16.1494L87.6375 16.467H87.4471L87.2421 16.1783H87.0663V16.467H86.9052V15.6441ZM87.2714 16.0628C87.3739 16.0628 87.4471 16.005 87.4471 15.9329C87.4471 15.8462 87.3885 15.8029 87.2714 15.8029H87.0663V16.0772H87.2714V16.0628Z" fill="#DB0025" />
		<path d="M5.3386 1.59855C4.41586 3.67722 4.32798 6.11678 5.1189 8.19545C5.86587 10.1586 7.34517 11.6743 9.27852 12.4971L9.26387 12.5404C7.87245 13.3055 6.3785 13.7097 4.94314 13.7097C3.22949 13.7097 1.70625 13.1612 0.417354 12.1218C0.226949 11.3279 0.13907 10.5051 0.168363 9.6534C0.197656 8.8739 0.314829 8.10883 0.534527 7.38707C1.13504 8.91721 2.01383 9.95654 3.50778 10.6061L3.77141 10.7216L3.62495 10.4762C2.59969 8.75842 1.96989 6.17452 2.77545 3.504C3.50778 2.73893 4.37192 2.08935 5.3386 1.59855ZM13.028 17.3474C13.8775 15.2543 13.6432 12.7425 12.3543 10.4618C12.3396 10.4618 12.325 10.4473 12.3104 10.4473C11.0654 13.3055 8.22397 15.081 4.8992 15.081C3.65424 15.081 2.39464 14.8212 1.25221 14.3304C1.75019 15.2687 2.40929 16.1204 3.18555 16.8566C4.00576 17.0875 4.84061 17.2175 5.71941 17.2175C7.31588 17.2175 8.94165 16.7988 10.2745 16.0193L10.5235 15.875L10.4063 16.1348C9.74721 17.6072 8.67801 18.4733 7.14012 19.0652C7.87245 19.2673 8.63407 19.3972 9.43963 19.426C10.3038 19.4549 11.1386 19.3683 11.9442 19.1807C12.3836 18.6177 12.7644 17.997 13.028 17.3474ZM19.0771 7.83457C17.7882 6.79523 16.2649 6.24669 14.5513 6.24669C13.1159 6.24669 11.622 6.65088 10.2305 7.41595C10.2305 7.43038 10.2159 7.44481 10.2159 7.45925C12.1492 8.28206 13.6285 9.79776 14.3755 11.7609C15.1664 13.8396 15.0786 16.2792 14.1558 18.3578C15.1225 17.867 15.9866 17.2175 16.719 16.438C17.5099 13.7674 16.8801 11.1835 15.8695 9.46574L15.723 9.22035L15.9866 9.33583C17.4806 9.98541 18.3594 11.0392 18.9599 12.5549C19.1649 11.8331 19.2968 11.0825 19.3261 10.2886C19.3553 9.45131 19.2675 8.6285 19.0771 7.83457ZM19.0771 7.83457C17.7882 6.79523 16.2649 6.24669 14.5513 6.24669C13.1159 6.24669 11.622 6.65088 10.2305 7.41595C10.2305 7.43038 10.2159 7.44481 10.2159 7.45925C12.1492 8.28206 13.6285 9.79776 14.3755 11.7609C15.1664 13.8396 15.0786 16.2792 14.1558 18.3578C15.1225 17.867 15.9866 17.2175 16.719 16.438C17.5099 13.7674 16.8801 11.1835 15.8695 9.46574L15.723 9.22035L15.9866 9.33583C17.4806 9.98541 18.3594 11.0392 18.9599 12.5549C19.1649 11.8331 19.2968 11.0825 19.3261 10.2886C19.3553 9.45131 19.2675 8.6285 19.0771 7.83457ZM18.2569 5.62598C17.7589 4.68769 17.0998 3.83601 16.3235 3.09982C15.5033 2.86885 14.6538 2.73894 13.7897 2.73894C12.1932 2.73894 10.5674 3.15755 9.23458 3.93706L8.98559 4.08141L9.10276 3.82158C9.76185 2.34918 10.8311 1.48307 12.3836 0.891225C11.6513 0.689131 10.8896 0.559214 10.0841 0.530344C9.21993 0.501474 8.38508 0.588087 7.57952 0.775744C7.11083 1.33872 6.74466 1.94499 6.48103 2.60901C5.63153 4.70212 5.86587 7.21385 7.15477 9.49462C7.16941 9.49462 7.18406 9.50905 7.19871 9.50905C8.44366 6.65088 11.2851 4.87535 14.6099 4.87535C15.8695 4.87535 17.1144 5.13518 18.2569 5.62598Z" fill="#95979B" />
		<path d="M17.554 18.459C17.554 18.0115 17.9201 17.6362 18.3742 17.6362C18.8429 17.6362 19.1944 17.9971 19.1944 18.4446C19.1944 18.8921 18.8282 19.253 18.3742 19.253C17.9055 19.2674 17.554 18.9065 17.554 18.459ZM19.0479 18.459C19.0479 18.0837 18.755 17.7806 18.3742 17.7806C17.9934 17.7806 17.7004 18.0837 17.7004 18.459C17.7004 18.8199 17.9934 19.1231 18.3742 19.1231C18.755 19.1375 19.0479 18.8199 19.0479 18.459ZM18.0519 18.026H18.4327C18.6232 18.026 18.755 18.1126 18.755 18.2858C18.755 18.4157 18.6817 18.5023 18.5646 18.5312L18.7843 18.8488H18.5939L18.3888 18.5601H18.2131V18.8488H18.0519V18.026ZM18.4035 18.4446C18.506 18.4446 18.5792 18.3869 18.5792 18.3147C18.5792 18.2281 18.5206 18.1848 18.4035 18.1848H18.1984V18.459H18.4035V18.4446Z" fill="#95979B" />
	</g>
	<defs>
		<clipPath id="clip0_13_21483">
			<rect width="88.3333" height="20" fill="white" />
		</clipPath>
	</defs>
</svg>
